<?xml version="1.0" encoding="UTF-8" standalone="no"?>
<svg
   xmlns:dc="http://purl.org/dc/elements/1.1/"
   xmlns:cc="http://creativecommons.org/ns#"
   xmlns:rdf="http://www.w3.org/1999/02/22-rdf-syntax-ns#"
   xmlns:svg="http://www.w3.org/2000/svg"
   xmlns="http://www.w3.org/2000/svg"
   xmlns:sodipodi="http://sodipodi.sourceforge.net/DTD/sodipodi-0.dtd"
   xmlns:inkscape="http://www.inkscape.org/namespaces/inkscape"
   width="512"
   height="512"
   version="1.1"
   viewBox="0 0 16.933 16.933"
   id="svg19"
   sodipodi:docname="gallium.svg"
   inkscape:version="0.92.5 (2060ec1f9f, 2020-04-08)">
  <metadata
     id="metadata23">
    <rdf:RDF>
      <cc:Work
         rdf:about="">
        <dc:format>image/svg+xml</dc:format>
        <dc:type
           rdf:resource="http://purl.org/dc/dcmitype/StillImage" />
        <dc:title />
      </cc:Work>
    </rdf:RDF>
  </metadata>
  <sodipodi:namedview
     pagecolor="#ffffff"
     bordercolor="#666666"
     borderopacity="1"
     objecttolerance="10"
     gridtolerance="10"
     guidetolerance="10"
     inkscape:pageopacity="0"
     inkscape:pageshadow="2"
     inkscape:window-width="1888"
     inkscape:window-height="968"
     id="namedview21"
     showgrid="false"
     inkscape:pagecheckerboard="true"
     inkscape:zoom="10.429825"
     inkscape:cx="24.668936"
     inkscape:cy="32.772466"
     inkscape:window-x="16"
     inkscape:window-y="60"
     inkscape:window-maximized="0"
     inkscape:current-layer="g17" />
  <defs
     id="defs7">
    <linearGradient
       id="b"
       x1="45.628"
       x2="45.628"
       y1="57.955"
       y2="12.461"
       gradientTransform="matrix(0.27579148,0,0,0.27560264,-0.39090442,-0.34472187)"
       gradientUnits="userSpaceOnUse">
      <stop
         offset="0"
         id="stop2" />
      <stop
         stop-opacity="0"
         offset="1"
         id="stop4" />
    </linearGradient>
    <clipPath
       clipPathUnits="userSpaceOnUse"
       id="clipPath986">
      <path
         style="opacity:1;fill:none;fill-opacity:0.50196078;stroke:#000000;stroke-width:0.05291563;stroke-linecap:round;stroke-miterlimit:4;stroke-dasharray:none;stroke-opacity:1"
         d="m 15.626353,288.4034 a 7.1409387,7.1282554 0 0 1 -7.1409391,7.12826 7.1409387,7.1282554 0 0 1 -7.1409387,-7.12826 7.1409387,7.1282554 0 0 1 7.1409387,-7.12825 7.1409387,7.1282554 0 0 1 7.1409391,7.12825 z"
         id="path988"
         inkscape:connector-curvature="0" />
    </clipPath>
  </defs>
  <g
     transform="translate(0 -280.07)"
     id="g17">
    <circle
       id="circle9"
       style="fill:#719cbb;stroke-width:0.9629907;paint-order:markers stroke fill;fill-opacity:1"
       r="7.1438417"
       cy="288.54041"
       cx="8.4667892" />
    <g
       id="g903"
       transform="matrix(1,0,0,1.0049945,-0.02412989,-1.3142362)"
       clip-path="url(#clipPath986)">
      <path
         style="fill:#a1c7e7;stroke-width:0.05936042"
         d="m 1.2901193,288.50515 v -7.18285 h 7.1828491 7.1828486 l -0.01508,7.16777 -0.01508,7.16777 -7.1677703,0.0151 -7.1677704,0.0151 z m 8.0366728,2.13413 c 0.4650781,-0.17401 0.9334119,-0.61747 1.1776009,-1.11505 0.181299,-0.36944 0.193748,-0.43391 0.185343,-0.95996 -0.01031,-0.64516 -0.09976,-0.94881 -0.415264,-1.40965 -0.240114,-0.35072 -0.7859691,-0.74831 -1.1692112,-0.85162 -0.1356784,-0.0366 -0.4885939,-0.056 -0.7842562,-0.0431 -0.4368482,0.019 -0.6007779,0.0544 -0.8749387,0.1885 -0.44899,0.21968 -0.8520936,0.63442 -1.0754789,1.10654 -0.163281,0.3451 -0.1822482,0.44265 -0.1789269,0.92026 0.00462,0.66422 0.1542598,1.08331 0.5400001,1.51234 0.6628197,0.73722 1.6823105,0.99324 2.5951319,0.65171 z"
         id="path917"
         inkscape:connector-curvature="0" />
      <path
         style="fill:#92b6d4;stroke-width:0.05936042"
         d="m 1.2901193,288.50491 v -7.18261 h 7.1502395 7.1502392 l 0.01753,7.10841 c 0.0096,3.90963 0.01468,7.11572 0.01119,7.12465 -0.03945,0.10098 -0.445973,-0.44866 -2.04159,-2.76036 -2.994051,-4.33772 -2.78994,-4.0224 -2.78994,-4.30997 0,-1.04495 -0.744489,-2.01682 -1.7521265,-2.28724 -0.3895539,-0.10455 -1.223994,0.01 -1.6687858,0.22886 -0.8888879,0.4376 -1.3951901,1.44303 -1.2161025,2.41497 0.1043057,0.56609 0.3297196,0.98492 0.729067,1.35465 0.320343,0.29658 0.8360961,0.56087 1.1053948,0.56644 0.05591,10e-4 0.1677216,0.0387 0.2484714,0.0834 0.097849,0.0542 0.2512869,0.0705 0.4600432,0.049 0.1722741,-0.0178 0.313226,-0.0205 0.313226,-0.006 0,0.0145 -1.002008,0.70611 -2.2266844,1.53684 -1.2246765,0.83073 -2.8055165,1.90442 -3.5129779,2.38598 L 1.9810198,295.6875 H 1.6355685 1.2901193 Z"
         id="path915"
         inkscape:connector-curvature="0" />
      <path
         style="fill:#6ab2da;stroke-width:0.05936042"
         d="M 1.2901193,288.45247 V 281.3223 H 8.4430496 15.59598 v 7.09812 7.09813 l -0.13788,-0.1678 c -0.07583,-0.0923 -1.068648,-1.51676 -2.206254,-3.16549 -1.137607,-1.64874 -2.142535,-3.10455 -2.233175,-3.23515 -0.122807,-0.17694 -0.180892,-0.35844 -0.227948,-0.71232 -0.117202,-0.88137 -0.59969,-1.56438 -1.3552818,-1.91853 -0.3009169,-0.14104 -0.4101425,-0.15903 -0.9627114,-0.15861 -0.5774095,4.4e-4 -0.6528856,0.0145 -1.0254666,0.1905 -0.4866873,0.22996 -0.9169895,0.65188 -1.1511462,1.12874 -0.1538935,0.3134 -0.1680506,0.39764 -0.1672598,0.99534 7.676e-4,0.57992 0.018202,0.68949 0.1558441,0.97945 0.3003041,0.63262 0.7918376,1.06221 1.464907,1.2803 0.2148972,0.0696 0.3979748,0.15063 0.4068385,0.17999 0.017895,0.0593 -6.5918223,4.59589 -6.7602872,4.63995 -0.1013788,0.0265 -0.1060403,-0.28571 -0.1060403,-7.10245 z"
         id="path913"
         inkscape:connector-curvature="0" />
      <path
         style="fill:#4e93c0;stroke-width:0.05936042"
         d="m 1.2901193,288.4519 v -7.1296 h 7.1656506 c 6.0454341,0 7.1520621,0.0126 7.0787301,0.0808 -0.04781,0.0444 -1.582804,1.10455 -3.411105,2.35587 -2.8847348,1.97435 -3.3634195,2.28186 -3.620985,2.32617 -0.1632411,0.0281 -0.4405861,0.0758 -0.616322,0.1061 -0.1757365,0.0303 -0.4334023,0.11019 -0.5725912,0.17757 -0.5690666,0.27548 -1.1676928,1.1013 -1.2516058,1.72662 -0.050936,0.37957 0.072901,1.04445 0.2714477,1.4574 0.2838456,0.59035 0.9610619,1.12807 1.560627,1.23916 0.1224309,0.0227 0.2221433,0.0717 0.221583,0.10883 -9.219e-4,0.0612 -6.5437515,4.57264 -6.7416956,4.6486 -0.071785,0.0275 -0.083734,-0.98526 -0.083734,-7.09747 z"
         id="path911"
         inkscape:connector-curvature="0" />
      <path
         style="fill:#4c8cb6;stroke-width:0.05936042"
         d="m 1.2910283,288.49007 c 4.999e-4,-3.8933 0.023521,-7.04306 0.051157,-6.99946 0.027636,0.0436 0.066426,0.0703 0.086198,0.0594 0.019773,-0.0109 0.8949142,1.22221 1.9447589,2.74035 2.9104304,4.20867 2.6656857,3.83103 2.6666876,4.11463 0.00115,0.32411 0.1470176,0.93607 0.2895804,1.21484 0.2800467,0.54761 0.8972818,1.02744 1.5424257,1.19906 0.1429084,0.038 0.236401,0.0908 0.2077614,0.11741 -0.028639,0.0265 -1.5078852,1.04235 -3.2872137,2.25733 -1.7793285,1.21497 -3.2773143,2.24643 -3.3288574,2.29212 -0.051543,0.0457 -0.1116455,0.0831 -0.133561,0.0831 -0.021915,0 -0.039437,-3.18543 -0.038937,-7.07873 z m 6.4112549,-2.37691 c 0.015643,-0.0136 0.8565192,-0.58487 1.8686143,-1.26946 1.0120955,-0.68459 2.5480455,-1.72437 3.4132245,-2.31063 0.865178,-0.58625 1.640879,-1.1 1.723782,-1.14168 0.08831,-0.0444 0.297251,-0.0678 0.504563,-0.0565 0.272943,0.0148 0.326692,0.0318 0.235112,0.0744 -0.0653,0.0303 -1.62796,1.08745 -3.472585,2.34914 l -3.3538632,2.294 -0.4736444,0.0428 c -0.2605044,0.0235 -0.4608458,0.0316 -0.4452032,0.018 z"
         id="path909"
         inkscape:connector-curvature="0" />
      <path
         style="fill:#2e79a1;stroke-width:0.05936042"
         d="m 1.2920072,288.53756 c -0.00111,-4.1444 0.020002,-7.03763 0.051108,-7.00453 0.047948,0.051 2.9470853,4.23559 4.1553638,5.99778 0.4726021,0.68926 0.4940747,0.73509 0.542334,1.15753 0.061331,0.53686 0.1724734,0.86098 0.4172091,1.21669 0.2422447,0.3521 0.7838862,0.74757 1.205471,0.88018 0.1838944,0.0578 0.3343535,0.11439 0.3343535,0.12566 0,0.0113 -1.4758484,1.02885 -3.2796631,2.26127 -1.8038147,1.23242 -3.3122038,2.28252 -3.3519757,2.33355 -0.056961,0.0731 -0.072713,-1.40622 -0.074201,-6.96813 z"
         id="path907"
         inkscape:connector-curvature="0" />
      <path
         style="fill:#2d7297;stroke-width:0.05936042"
         d="m 5.3563079,288.20661 c -0.3591305,-0.52159 -1.064048,-1.54268 -1.5664833,-2.26908 -0.5024352,-0.7264 -1.2704106,-1.84771 -1.706612,-2.49179 l -0.7930933,-1.17107 0.00402,-0.40198 c 0.00351,-0.35076 0.012697,-0.38308 0.072123,-0.25359 0.037458,0.0816 1.0827904,1.61687 2.3229606,3.41166 2.2338521,3.23287 2.2553265,3.26678 2.3054794,3.64111 0.027843,0.20782 0.042513,0.40153 0.032598,0.43047 -0.00991,0.0289 -0.3118601,-0.37413 -0.6709906,-0.89573 z"
         id="path905"
         inkscape:connector-curvature="0" />
    </g>
  </g>
  <g
     inkscape:groupmode="layer"
     id="layer2"
     inkscape:label="Top">
    <path
       inkscape:connector-curvature="0"
       id="path11"
       style="opacity:0.25;fill:url(#b);stroke-width:0.96625268;paint-order:stroke markers fill"
       d="M 13.156839,3.0823476 A 11.170087,11.162438 0 0 1 13.6749,6.4000351 11.170087,11.162438 0 0 1 8.7809503,15.620816 7.1715377,7.1666272 0 0 0 15.605378,8.4666964 7.1715377,7.1666272 0 0 0 13.156839,3.0813044 Z" />
  </g>
  <g
     inkscape:groupmode="layer"
     id="layer1"
     inkscape:label="Logo" />
</svg>
