<?xml version="1.0" encoding="UTF-8" standalone="no"?>
<svg
   xmlns:dc="http://purl.org/dc/elements/1.1/"
   xmlns:cc="http://creativecommons.org/ns#"
   xmlns:rdf="http://www.w3.org/1999/02/22-rdf-syntax-ns#"
   xmlns:svg="http://www.w3.org/2000/svg"
   xmlns="http://www.w3.org/2000/svg"
   xmlns:sodipodi="http://sodipodi.sourceforge.net/DTD/sodipodi-0.dtd"
   xmlns:inkscape="http://www.inkscape.org/namespaces/inkscape"
   width="512"
   height="512"
   version="1.1"
   viewBox="0 0 16.933 16.933"
   id="svg19"
   sodipodi:docname="macos.svg"
   inkscape:version="0.92.5 (2060ec1f9f, 2020-04-08)">
  <metadata
     id="metadata23">
    <rdf:RDF>
      <cc:Work
         rdf:about="">
        <dc:format>image/svg+xml</dc:format>
        <dc:type
           rdf:resource="http://purl.org/dc/dcmitype/StillImage" />
        <dc:title />
      </cc:Work>
    </rdf:RDF>
  </metadata>
  <sodipodi:namedview
     pagecolor="#ffffff"
     bordercolor="#666666"
     borderopacity="1"
     objecttolerance="10"
     gridtolerance="10"
     guidetolerance="10"
     inkscape:pageopacity="0"
     inkscape:pageshadow="2"
     inkscape:window-width="1888"
     inkscape:window-height="968"
     id="namedview21"
     showgrid="false"
     inkscape:pagecheckerboard="true"
     inkscape:zoom="64"
     inkscape:cx="39.467532"
     inkscape:cy="30.527364"
     inkscape:window-x="16"
     inkscape:window-y="60"
     inkscape:window-maximized="0"
     inkscape:current-layer="g17" />
  <defs
     id="defs7">
    <linearGradient
       id="b"
       x1="45.628"
       x2="45.628"
       y1="57.955"
       y2="12.461"
       gradientTransform="matrix(0.27476633,0,0,0.27476633,-0.32619,279.75469)"
       gradientUnits="userSpaceOnUse">
      <stop
         offset="0"
         id="stop2" />
      <stop
         stop-opacity="0"
         offset="1"
         id="stop4" />
    </linearGradient>
    <filter
       style="color-interpolation-filters:sRGB;"
       inkscape:label="Drop Shadow"
       id="filter1185">
      <feFlood
         flood-opacity="0.498039"
         flood-color="rgb(0,0,0)"
         result="flood"
         id="feFlood1175" />
      <feComposite
         in="flood"
         in2="SourceGraphic"
         operator="out"
         result="composite1"
         id="feComposite1177" />
      <feGaussianBlur
         in="composite1"
         stdDeviation="161.7"
         result="blur"
         id="feGaussianBlur1179" />
      <feOffset
         dx="4.57967e-15"
         dy="-0.819672"
         result="offset"
         id="feOffset1181" />
      <feComposite
         in="offset"
         in2="SourceGraphic"
         operator="atop"
         result="composite2"
         id="feComposite1183" />
    </filter>
  </defs>
  <g
     transform="translate(0 -280.07)"
     id="g17">
    <circle
       id="circle9"
       style="fill:#f0f4ff;stroke-width:0.9629907;paint-order:markers stroke fill;fill-opacity:1"
       r="7.1438417"
       cy="288.54041"
       cx="8.4667892" />
    <path
       inkscape:connector-curvature="0"
       id="path11"
       style="opacity:0.25;fill:url(#b);stroke-width:0.9629907;paint-order:stroke markers fill"
       d="m 13.171194,283.17136 a 11.128566,11.128566 0 0 1 0.516135,3.30762 11.128566,11.128566 0 0 1 -4.8757575,9.1928 7.14488,7.14488 0 0 0 6.7990595,-7.13241 7.14488,7.14488 0 0 0 -2.439437,-5.36905 z" />
    <g
       id="g883"
       transform="translate(0.18895461,-0.179375)"
       style="filter:url(#filter1185)">
      <path
         style="fill:#e7e7e7;stroke-width:0.0092848"
         d="m 6.5511339,292.75318 c -0.2945002,-0.0651 -0.5937244,-0.28838 -0.9097014,-0.67874 -0.16811,-0.20768 -0.4128104,-0.55378 -0.5317416,-0.75207 -0.432414,-0.72096 -0.7123173,-1.5396 -0.815864,-2.38619 -0.023952,-0.19583 -0.034148,-0.67233 -0.018296,-0.85509 0.040103,-0.46236 0.1426504,-0.8439 0.3217178,-1.19697 0.408474,-0.8054 1.2087098,-1.31859 2.0556327,-1.31827 0.2794375,1.1e-4 0.4701084,0.0458 0.9195806,0.22039 0.2843905,0.11046 0.4197229,0.15636 0.5135765,0.17416 0.1802396,0.0342 0.2692378,0.0135 0.7491559,-0.17443 0.5350374,-0.20947 0.8284716,-0.2709 1.1834016,-0.24771 0.619041,0.0404 1.112921,0.25179 1.505328,0.6442 0.128799,0.12879 0.26006,0.29335 0.251595,0.31541 -0.0028,0.007 -0.02934,0.0292 -0.05905,0.0489 -0.153864,0.10181 -0.325189,0.25482 -0.455873,0.40713 -0.347592,0.40513 -0.51844,0.8856 -0.500184,1.40665 0.01159,0.33074 0.0798,0.60773 0.215993,0.87713 0.197342,0.39034 0.532224,0.72113 0.936654,0.9252 0.08375,0.0423 0.116109,0.0632 0.116109,0.0753 0,0.0215 -0.08508,0.25628 -0.149015,0.41111 -0.06888,0.16682 -0.222095,0.47386 -0.319692,0.64065 -0.04482,0.0766 -0.133852,0.21657 -0.197851,0.31105 -0.412289,0.6086 -0.677912,0.88856 -0.990778,1.04426 -0.182734,0.0909 -0.338086,0.12254 -0.5570875,0.11333 -0.2140439,-0.009 -0.3430582,-0.0441 -0.6651888,-0.18085 -0.378746,-0.16081 -0.5318212,-0.19327 -0.8714451,-0.18479 -0.2956297,0.007 -0.43708,0.0417 -0.8031349,0.19465 -0.3490716,0.14589 -0.4567885,0.17402 -0.687075,0.17941 -0.1301056,0.003 -0.1717095,6.3e-4 -0.2367623,-0.0138 z m 1.5841689,-7.30092 c -0.01519,-0.0116 -0.018034,-0.0301 -0.021887,-0.14255 -0.015206,-0.44376 0.1828918,-0.95622 0.5201387,-1.34554 0.1935641,-0.22345 0.4148002,-0.38882 0.7134431,-0.53327 0.2131675,-0.10311 0.4360402,-0.16978 0.6131602,-0.18344 0.066762,-0.005 0.076954,-0.004 0.088065,0.0114 0.01753,0.024 0.01657,0.30339 -0.0015,0.43036 -0.055938,0.39356 -0.2338049,0.78358 -0.5051661,1.10773 -0.2671247,0.31909 -0.6642367,0.56092 -1.0490698,0.63885 -0.1270053,0.0257 -0.3326826,0.0352 -0.3572069,0.0165 z"
         id="path897"
         inkscape:connector-curvature="0" />
      <path
         style="fill:#d7d7d7;stroke-width:0.0092848"
         d="m 6.6428096,292.76117 c -0.1295884,-0.0151 -0.2717399,-0.0658 -0.4042999,-0.14421 -0.2167949,-0.12817 -0.4616681,-0.36987 -0.7146248,-0.70536 -0.3822634,-0.50698 -0.6214936,-0.92603 -0.8346469,-1.462 -0.4351753,-1.09424 -0.5353022,-2.22672 -0.2733611,-3.09184 0.1517469,-0.50117 0.4280679,-0.93343 0.7936038,-1.24146 0.5142619,-0.43335 1.2087076,-0.63051 1.7891486,-0.50796 0.1461645,0.0309 0.3279701,0.09 0.583117,0.18959 0.6163437,0.24065 0.6216071,0.24071 1.2070236,0.0141 0.6034577,-0.23364 0.8776219,-0.29213 1.2441631,-0.2654 0.623092,0.0454 1.140069,0.27351 1.515917,0.66879 0.09075,0.0955 0.22034,0.25796 0.22034,0.27633 0,0.006 -0.02611,0.0279 -0.05803,0.0495 -0.325096,0.22027 -0.594718,0.52817 -0.759293,0.8671 -0.141782,0.29199 -0.198952,0.5459 -0.198711,0.88254 1.86e-4,0.26072 0.02786,0.44281 0.102293,0.67314 0.16321,0.50504 0.542938,0.94218 1.041288,1.19874 0.06007,0.0309 0.113075,0.0617 0.117792,0.0683 0.01548,0.0219 -0.110836,0.35868 -0.231952,0.61846 -0.128329,0.27525 -0.273234,0.5255 -0.469995,0.81169 -0.436858,0.6354 -0.722589,0.90937 -1.078901,1.03448 -0.212814,0.0747 -0.4865462,0.0767 -0.734901,0.005 -0.076763,-0.0221 -0.1393117,-0.0462 -0.4839676,-0.18677 -0.222592,-0.0908 -0.3802345,-0.12369 -0.6262934,-0.13079 -0.3136669,-0.009 -0.4938862,0.0261 -0.8253423,0.16081 -0.4013693,0.16316 -0.5210226,0.19973 -0.7102869,0.21713 -0.1118517,0.0103 -0.1202212,0.0103 -0.2100802,-2.2e-4 z m 1.4962323,-7.315 c -0.018705,-0.0129 -0.024869,-0.23951 -0.00983,-0.36147 0.053066,-0.43034 0.265207,-0.86336 0.584893,-1.19386 0.28021,-0.28969 0.6388302,-0.49762 1.032888,-0.59887 0.094996,-0.0244 0.2065578,-0.0402 0.2580851,-0.0365 l 0.04178,0.003 0.0068,0.0789 c 0.0105,0.12268 -0.0041,0.31536 -0.03583,0.47352 -0.078754,0.3923 -0.3036507,0.81152 -0.5875635,1.09525 -0.2644344,0.26427 -0.6029489,0.4534 -0.9328836,0.5212 -0.1061048,0.0218 -0.3363059,0.0339 -0.3583013,0.0188 z"
         id="path895"
         inkscape:connector-curvature="0" />
      <path
         style="fill:#c7c7c7;stroke-width:0.0092848"
         d="m 6.5913755,292.74842 c -0.3492161,-0.0668 -0.6781517,-0.32733 -1.0677198,-0.84575 -0.3761148,-0.50051 -0.6092566,-0.90678 -0.8178765,-1.42521 -0.2153772,-0.53523 -0.3435842,-1.04339 -0.4075995,-1.61556 -0.023154,-0.20695 -0.023215,-0.70418 -1.085e-4,-0.89125 0.088332,-0.71511 0.3238335,-1.2532 0.7349984,-1.67936 0.1957123,-0.20285 0.4177484,-0.36594 0.6587452,-0.48385 0.3225225,-0.1578 0.6167926,-0.22724 0.9614518,-0.22689 0.3011287,3e-4 0.4502443,0.0372 0.9762875,0.24131 0.3297165,0.12796 0.4135112,0.15271 0.539018,0.1592 0.1564691,0.008 0.2207507,-0.009 0.610913,-0.15971 0.4313472,-0.16694 0.6371244,-0.22803 0.8774134,-0.26047 0.2107723,-0.0285 0.5566895,-0.006 0.7999435,0.051 0.43499,0.10271 0.800058,0.30758 1.094155,0.61402 0.09832,0.10244 0.208908,0.24215 0.208908,0.26391 0,0.007 -0.02611,0.0305 -0.05803,0.0519 -0.169,0.1133 -0.370591,0.29974 -0.500811,0.46316 -0.241943,0.30364 -0.390787,0.64829 -0.439081,1.01669 -0.01637,0.12486 -0.01854,0.38249 -0.0043,0.51335 0.07632,0.70283 0.48849,1.29427 1.138342,1.63346 0.08589,0.0448 0.114599,0.0643 0.114599,0.0776 0,0.0282 -0.09625,0.29131 -0.163463,0.44678 -0.173884,0.40225 -0.38422,0.76135 -0.696827,1.18968 -0.187217,0.25653 -0.40249,0.49346 -0.551217,0.60668 -0.250212,0.19049 -0.513279,0.27628 -0.7936318,0.25884 -0.2008357,-0.0125 -0.3372526,-0.0506 -0.6499358,-0.18159 -0.3337493,-0.1398 -0.4915146,-0.18002 -0.7507415,-0.19136 -0.3080148,-0.0135 -0.5432614,0.0367 -0.9298067,0.1983 -0.2245451,0.0939 -0.3465521,0.13567 -0.4688823,0.16061 -0.1242983,0.0253 -0.3217652,0.0322 -0.4147134,0.0144 z m 1.5422229,-7.32302 c -0.014958,-0.0456 -0.00663,-0.31481 0.01318,-0.42598 0.064932,-0.36439 0.2422046,-0.73134 0.4956346,-1.02597 0.2188535,-0.25442 0.5269628,-0.46796 0.8700068,-0.60295 0.1733045,-0.0682 0.4966232,-0.13496 0.5234652,-0.10808 0.01793,0.018 0.01379,0.33739 -0.0059,0.45652 -0.04991,0.30159 -0.1656693,0.59301 -0.3392865,0.85415 -0.2192064,0.3297 -0.4782992,0.55894 -0.8136962,0.71994 -0.2068971,0.0993 -0.3744494,0.14166 -0.5909007,0.14932 l -0.1452305,0.005 z"
         id="path893"
         inkscape:connector-curvature="0" />
      <path
         style="fill:#b7b7b7;stroke-width:0.0092848"
         d="m 6.6904058,292.75562 c -0.4284766,-0.0409 -0.7832951,-0.32185 -1.2765824,-1.01079 -0.2225927,-0.31088 -0.3517037,-0.52197 -0.4969026,-0.81242 -0.3486711,-0.69746 -0.5588515,-1.4316 -0.6220183,-2.17264 -0.012949,-0.15191 -0.01294,-0.55965 1.58e-5,-0.701 0.047059,-0.51344 0.1792579,-0.9454 0.4052638,-1.32419 0.4242696,-0.71109 1.1696403,-1.15045 1.9512385,-1.15016 0.2883076,1.1e-4 0.4890684,0.0501 0.9818747,0.24428 0.5299088,0.20884 0.5974488,0.21063 1.066881,0.0283 0.6278976,-0.24382 0.8554834,-0.30256 1.1749145,-0.30322 0.7522752,-0.002 1.4222862,0.31323 1.8305212,0.86006 0.02989,0.04 0.05199,0.0766 0.0491,0.0813 -0.0029,0.005 -0.0311,0.0259 -0.0627,0.0472 -0.158652,0.10697 -0.361493,0.29356 -0.483334,0.4446 -0.243132,0.30139 -0.390086,0.63023 -0.44859,1.0038 -0.02253,0.14384 -0.02236,0.46029 3.32e-4,0.61441 0.05462,0.37102 0.204263,0.71947 0.427241,0.99484 0.05922,0.0731 0.226477,0.24202 0.304108,0.30707 0.104488,0.0876 0.290805,0.21014 0.409669,0.26954 0.05748,0.0287 0.106138,0.0537 0.108125,0.0556 0.0069,0.006 -0.09404,0.2869 -0.154887,0.43037 -0.139436,0.32875 -0.299537,0.62161 -0.510434,0.93369 -0.486453,0.71985 -0.795374,1.00741 -1.199894,1.11691 -0.08006,0.0217 -0.104928,0.0239 -0.2692588,0.0245 -0.2562057,8.4e-4 -0.3568558,-0.0236 -0.7056446,-0.17135 -0.3723946,-0.15774 -0.5321835,-0.1949 -0.8368233,-0.19458 -0.3053644,3.3e-4 -0.4818559,0.0405 -0.8483673,0.19286 -0.3491537,0.14519 -0.4671761,0.17696 -0.710287,0.19116 -0.028087,0.002 -0.06569,0.002 -0.083563,-1.2e-4 z m 1.4579209,-7.31873 c -0.02144,-0.0147 -0.024552,-0.23731 -0.00526,-0.37613 0.072754,-0.52347 0.3839255,-1.05029 0.8103236,-1.37188 0.1267428,-0.0956 0.2320832,-0.15952 0.3878237,-0.23539 0.2289448,-0.11153 0.4637858,-0.18107 0.6220814,-0.18421 l 0.074278,-10e-4 0.0029,0.14856 c 0.0044,0.23019 -0.02612,0.42422 -0.1010907,0.64164 -0.2426183,0.70362 -0.8010793,1.22803 -1.4476967,1.35942 -0.1095315,0.0223 -0.3217542,0.0343 -0.3433297,0.0195 z"
         id="path891"
         inkscape:connector-curvature="0" />
      <path
         style="fill:#a5a5a5;stroke-width:0.0092848"
         d="m 6.6207699,292.74201 c -0.2227355,-0.0318 -0.4658905,-0.16822 -0.6997778,-0.39264 -0.2219338,-0.21295 -0.6399731,-0.77233 -0.844557,-1.13011 -0.4182399,-0.73141 -0.6865884,-1.56538 -0.7689945,-2.38986 -0.021786,-0.21797 -0.021538,-0.6335 5.003e-4,-0.83563 0.063717,-0.5844 0.2416283,-1.06848 0.5391643,-1.467 0.3842878,-0.51471 0.9382624,-0.84203 1.5647567,-0.92455 0.1145039,-0.0151 0.3637337,-0.0152 0.4642399,-3.1e-4 0.1857122,0.0276 0.3980097,0.0922 0.7195717,0.21902 0.5533511,0.21819 0.6316668,0.2238 1.0247657,0.0734 0.5660668,-0.21654 0.6759173,-0.2532 0.8875977,-0.29626 0.2450201,-0.0498 0.5066191,-0.0514 0.7900201,-0.005 0.582403,0.0957 1.070603,0.38288 1.404031,0.8259 l 0.05214,0.0693 -0.0267,0.0192 c -0.377297,0.27107 -0.612892,0.53533 -0.786902,0.88267 -0.246152,0.49133 -0.27501,1.12157 -0.07577,1.65476 0.178935,0.47885 0.564587,0.90187 1.03926,1.13996 0.05091,0.0255 0.09442,0.0476 0.0967,0.049 0.0071,0.004 -0.0451,0.15742 -0.108339,0.31772 -0.183521,0.46519 -0.4128,0.86603 -0.780696,1.36487 -0.274079,0.37163 -0.504644,0.58777 -0.758519,0.71106 -0.179479,0.0872 -0.3647432,0.12097 -0.5762784,0.10519 -0.1901642,-0.0142 -0.3184762,-0.0506 -0.6026067,-0.17123 -0.2031138,-0.0862 -0.3465622,-0.13623 -0.4610328,-0.16083 -0.2593588,-0.0557 -0.5645871,-0.0506 -0.8251955,0.0138 -0.117831,0.0291 -0.2117356,0.0626 -0.431743,0.15405 -0.2845704,0.11826 -0.4009191,0.15283 -0.5853185,0.17396 -0.095632,0.0109 -0.1709456,0.0108 -0.2503132,-5.4e-4 z m 1.5242386,-7.32586 c -0.00932,-0.0348 -0.00715,-0.26517 0.00331,-0.35197 0.049338,-0.40928 0.3011938,-0.9023 0.6146586,-1.20324 0.3416393,-0.32798 0.833457,-0.56614 1.2188888,-0.59023 l 0.046424,-0.003 0.0085,0.0743 c 0.01126,0.0985 -0.0059,0.31818 -0.03662,0.46888 -0.077298,0.37924 -0.2825237,0.77027 -0.5524334,1.0526 -0.3323964,0.34769 -0.756625,0.55508 -1.1658954,0.56995 l -0.1309031,0.005 z"
         id="path889"
         inkscape:connector-curvature="0" />
      <path
         style="fill:#9f9f9f;stroke-width:0.0092848"
         d="m 6.587425,292.72852 c -0.3151594,-0.0571 -0.6299492,-0.29745 -0.9842154,-0.75157 -0.2845685,-0.36478 -0.4948738,-0.69279 -0.6756564,-1.05382 -0.3314753,-0.66198 -0.5301028,-1.33249 -0.6105992,-2.06123 -0.020288,-0.18367 -0.023213,-0.67404 -0.00504,-0.84492 0.077986,-0.73324 0.3303686,-1.30977 0.7633988,-1.74384 0.4171021,-0.4181 0.945521,-0.65352 1.5176023,-0.67611 0.2873494,-0.0113 0.5205417,0.0423 1.0001897,0.23006 0.3711465,0.1453 0.4746364,0.1747 0.6153649,0.17487 0.133854,1.5e-4 0.223469,-0.0257 0.617439,-0.17842 0.5953909,-0.23072 0.8601862,-0.28257 1.2673753,-0.24813 0.650175,0.055 1.196813,0.33573 1.570725,0.8067 0.04253,0.0536 0.07733,0.10011 0.07733,0.10344 0,0.003 -0.02611,0.0242 -0.05803,0.0463 -0.448045,0.31102 -0.770916,0.76165 -0.892988,1.24634 -0.07975,0.31663 -0.08294,0.67674 -0.0089,1.008 0.124712,0.55828 0.49433,1.04845 1.019001,1.35136 0.04848,0.028 0.111431,0.0615 0.139896,0.0746 0.02847,0.013 0.05175,0.0297 0.05175,0.0371 0,0.007 -0.01834,0.0649 -0.04074,0.12779 -0.18557,0.52078 -0.414255,0.94116 -0.805205,1.48018 -0.522075,0.7198 -0.934992,0.95285 -1.5104572,0.8525 -0.110322,-0.0192 -0.256144,-0.0685 -0.4693261,-0.15844 -0.1017379,-0.0429 -0.2278552,-0.0924 -0.2802608,-0.10995 -0.2253309,-0.0754 -0.4818477,-0.10315 -0.729965,-0.079 -0.2152912,0.021 -0.3893911,0.0697 -0.6738737,0.18846 -0.090785,0.0379 -0.2013383,0.0822 -0.2456748,0.0984 -0.2283262,0.0835 -0.4656851,0.11251 -0.6490928,0.0793 z m 1.5573012,-7.38925 c -0.031377,-0.44638 0.196049,-1.01568 0.5657459,-1.41621 0.081548,-0.0884 0.2431515,-0.22343 0.3619509,-0.30254 0.2858288,-0.19035 0.5992662,-0.31037 0.8965747,-0.34331 l 0.052125,-0.006 0.0059,0.0295 c 0.0091,0.0457 0.007,0.22232 -0.0039,0.32236 -0.070806,0.64907 -0.4734004,1.27062 -1.0290123,1.58864 -0.1741995,0.0997 -0.3930248,0.17774 -0.5738436,0.20463 -0.036725,0.005 -0.1123595,0.01 -0.1680772,0.01 h -0.101305 z"
         id="path887"
         inkscape:connector-curvature="0" />
      <path
         style="fill:#9d9d9d;stroke-width:0.0092848"
         d="m 6.6203947,292.7295 c -0.4227428,-0.0657 -0.8210205,-0.43003 -1.3674428,-1.25086 -0.428584,-0.64381 -0.7488826,-1.46544 -0.8836146,-2.26663 -0.1473805,-0.87641 -0.062043,-1.66497 0.2473884,-2.28599 0.2499416,-0.50162 0.6233077,-0.87426 1.1127036,-1.11054 0.2960007,-0.1429 0.6068485,-0.21482 0.9284797,-0.21482 0.2699745,10e-6 0.4655852,0.0486 0.9394169,0.23343 0.2757599,0.10755 0.3929059,0.14628 0.4976965,0.16453 0.1784074,0.0311 0.281025,0.006 0.7689468,-0.18516 0.6034083,-0.23687 0.9321764,-0.28691 1.4057258,-0.21399 0.567447,0.0874 1.050257,0.35991 1.387451,0.78317 0.0412,0.0517 0.07491,0.0976 0.07491,0.10207 0,0.004 -0.01528,0.0175 -0.03395,0.029 -0.07171,0.0443 -0.235077,0.18067 -0.335924,0.28037 -0.187582,0.18544 -0.32073,0.36774 -0.428653,0.58687 -0.1468,0.29806 -0.208271,0.56702 -0.207965,0.90991 1.76e-4,0.19729 0.0099,0.29468 0.04702,0.4729 0.115141,0.55213 0.465042,1.03632 0.974139,1.34801 0.07475,0.0458 0.200935,0.11311 0.243112,0.12974 0.0045,0.002 -0.07303,0.22034 -0.118244,0.33341 -0.171136,0.42798 -0.385639,0.804 -0.72828,1.27666 -0.363143,0.50093 -0.654373,0.74757 -0.994319,0.84208 -0.08684,0.0241 -0.104568,0.0258 -0.2739018,0.0259 -0.2570292,1.6e-4 -0.3526678,-0.0234 -0.714245,-0.17601 -0.3553659,-0.14998 -0.5321115,-0.19072 -0.8267878,-0.19055 -0.3062238,1.7e-4 -0.5032323,0.046 -0.8869416,0.20647 -0.2851428,0.11922 -0.4118809,0.15615 -0.5979599,0.17426 -0.1102908,0.0107 -0.1351058,0.0103 -0.2287622,-0.004 z m 1.5335764,-7.32387 c -0.010887,-0.0406 -0.00566,-0.26123 0.0085,-0.35859 0.05789,-0.39813 0.2658969,-0.81553 0.5626343,-1.12901 0.1562361,-0.16505 0.3857,-0.33251 0.6097415,-0.44499 0.1991604,-0.1 0.5083934,-0.19124 0.6481464,-0.19129 l 0.038263,-10e-6 0.0065,0.0828 c 0.01465,0.18725 -0.030262,0.47361 -0.1107848,0.70641 -0.075183,0.21734 -0.2384814,0.50537 -0.3885063,0.68524 -0.3384738,0.40581 -0.8487584,0.67034 -1.2931082,0.67034 -0.070718,0 -0.076133,-0.001 -0.081359,-0.0209 z"
         id="path885"
         inkscape:connector-curvature="0" />
    </g>
  </g>
  <g
     inkscape:groupmode="layer"
     id="layer1"
     inkscape:label="Logo" />
</svg>
