<?xml version="1.0" encoding="UTF-8" standalone="no"?>
<svg
   xmlns:dc="http://purl.org/dc/elements/1.1/"
   xmlns:cc="http://creativecommons.org/ns#"
   xmlns:rdf="http://www.w3.org/1999/02/22-rdf-syntax-ns#"
   xmlns:svg="http://www.w3.org/2000/svg"
   xmlns="http://www.w3.org/2000/svg"
   xmlns:xlink="http://www.w3.org/1999/xlink"
   xmlns:sodipodi="http://sodipodi.sourceforge.net/DTD/sodipodi-0.dtd"
   xmlns:inkscape="http://www.inkscape.org/namespaces/inkscape"
   width="512"
   height="512"
   version="1.1"
   viewBox="0 0 16.933 16.933"
   id="svg19"
   sodipodi:docname="neon.svg"
   inkscape:version="0.92.5 (2060ec1f9f, 2020-04-08)">
  <metadata
     id="metadata23">
    <rdf:RDF>
      <cc:Work
         rdf:about="">
        <dc:format>image/svg+xml</dc:format>
        <dc:type
           rdf:resource="http://purl.org/dc/dcmitype/StillImage" />
        <dc:title />
      </cc:Work>
    </rdf:RDF>
  </metadata>
  <sodipodi:namedview
     pagecolor="#ffffff"
     bordercolor="#666666"
     borderopacity="1"
     objecttolerance="10"
     gridtolerance="10"
     guidetolerance="10"
     inkscape:pageopacity="0"
     inkscape:pageshadow="2"
     inkscape:window-width="1888"
     inkscape:window-height="968"
     id="namedview21"
     showgrid="false"
     inkscape:pagecheckerboard="true"
     inkscape:zoom="10.429825"
     inkscape:cx="26.846604"
     inkscape:cy="31.039892"
     inkscape:window-x="16"
     inkscape:window-y="60"
     inkscape:window-maximized="0"
     inkscape:current-layer="svg19" />
  <defs
     id="defs7">
    <linearGradient
       id="b"
       x1="45.628"
       x2="45.628"
       y1="57.955"
       y2="12.461"
       gradientTransform="matrix(0.27476633,0,0,0.27476633,-0.32619,279.75469)"
       gradientUnits="userSpaceOnUse">
      <stop
         offset="0"
         id="stop2"
         style="stop-color:#264ecb;stop-opacity:0.78651685" />
      <stop
         stop-opacity="0"
         offset="1"
         id="stop4"
         style="stop-color:#00b99b;stop-opacity:0.89513111" />
    </linearGradient>
    <linearGradient
       inkscape:collect="always"
       xlink:href="#b"
       id="linearGradient824"
       x1="8.7264051"
       y1="294.66919"
       x2="8.8278742"
       y2="282.2645"
       gradientUnits="userSpaceOnUse" />
  </defs>
  <g
     transform="translate(0 -280.07)"
     id="g17"
     style="fill-opacity:1;fill:url(#linearGradient824)">
    <circle
       id="circle9"
       style="fill:url(#linearGradient824);stroke-width:0.9629907;paint-order:markers stroke fill;fill-opacity:1.0"
       r="7.1438417"
       cy="288.54041"
       cx="8.4667892" />
    <path
       inkscape:connector-curvature="0"
       id="path11"
       style="opacity:0.25;fill:url(#linearGradient824);stroke-width:0.9629907;paint-order:stroke markers fill;fill-opacity:1.0"
       d="m 13.171194,283.17136 a 11.128566,11.128566 0 0 1 0.516135,3.30762 11.128566,11.128566 0 0 1 -4.8757575,9.1928 7.14488,7.14488 0 0 0 6.7990595,-7.13241 7.14488,7.14488 0 0 0 -2.439437,-5.36905 z" />
  </g>
  <g
     inkscape:groupmode="layer"
     id="layer1"
     inkscape:label="Logo" />
  <path
     style="fill:#ffffff;fill-opacity:1;stroke-width:0.04031103"
     d="m 8.3674601,13.191034 c -0.07038,-0.03043 -0.157202,-0.09995 -0.192933,-0.154479 -0.05381,-0.08213 -0.126635,-0.11043 -0.424267,-0.164883 -0.673856,-0.123284 -1.294816,-0.385467 -1.852652,-0.782236 -0.22324,-0.158782 -0.283811,-0.183294 -0.430618,-0.174266 -0.09396,0.0058 -0.20988,-0.01039 -0.257598,-0.03593 -0.114377,-0.06121 -0.205868,-0.287045 -0.176262,-0.435076 0.01925,-0.09624 -0.0092,-0.162476 -0.154301,-0.35962 C 4.5054071,10.577289 4.2248241,9.920031 4.0996741,9.2593959 4.0338091,8.9117109 4.0139311,8.8648719 3.8838431,8.7508319 3.7616721,8.6437319 3.7405581,8.59987 3.7405581,8.453175 c 0,-0.147368 0.02081,-0.190067 0.145031,-0.2976571 0.128693,-0.1114599 0.150679,-0.1596638 0.195178,-0.427942 0.108496,-0.654111 0.410205,-1.3800348 0.784684,-1.8879788 0.153816,-0.208636 0.183723,-0.276124 0.16339,-0.368701 -0.01448,-0.06591 7.57e-4,-0.1747 0.03641,-0.260034 0.07173,-0.171665 0.287146,-0.284163 0.468051,-0.244429 0.09258,0.02033 0.160066,-0.0096 0.368702,-0.1633903 0.507944,-0.3744788 1.233867,-0.6761881 1.887979,-0.7846845 0.268277,-0.044499 0.316482,-0.066484 0.427942,-0.1951779 0.10759,-0.1242258 0.150289,-0.1450304 0.297656,-0.1450304 0.146772,0 0.190502,0.021079 0.297657,0.143481 0.11019,0.1258678 0.161261,0.1492702 0.416037,0.1906415 0.636097,0.1032908 1.4613139,0.4495099 1.9393469,0.8136518 0.17807,0.1356448 0.235895,0.1593278 0.342644,0.1403358 0.28379,-0.05049 0.545988,0.227477 0.47278,0.501214 -0.02198,0.08217 0.0079,0.150883 0.148748,0.3422279 0.393542,0.5345891 0.676855,1.198007 0.800707,1.874968 0.05505,0.300903 0.08319,0.3735381 0.165607,0.427542 0.05461,0.03578 0.125227,0.1271349 0.156929,0.20301 0.04943,0.1183091 0.04966,0.1570481 0.0016,0.272054 -0.03082,0.07376 -0.10166,0.168991 -0.157428,0.2116331 -0.08384,0.06411 -0.115936,0.1508199 -0.185365,0.5007979 -0.133624,0.673575 -0.363377,1.206602 -0.763362,1.771004 -0.161849,0.228379 -0.182614,0.281561 -0.173916,0.445441 0.0083,0.156722 -0.0077,0.203683 -0.101519,0.297495 -0.09381,0.09381 -0.140773,0.109837 -0.297495,0.101519 -0.165194,-0.0088 -0.216438,0.01177 -0.456196,0.18286 -0.550398,0.392757 -1.2701059,0.684895 -1.9478079,0.790642 -0.222104,0.03466 -0.29275,0.06188 -0.307563,0.118526 -0.0424,0.162133 -0.31647,0.262998 -0.499537,0.183841 z m 0.301305,-0.231089 c 0.104682,-0.104682 0.0016,-0.354737 -0.146178,-0.354737 -0.09243,0 -0.208559,0.122446 -0.208559,0.219896 0,0.115799 0.07416,0.183214 0.201555,0.183214 0.05764,0 0.126577,-0.02177 0.153182,-0.04837 z M 8.2429691,12.53558 c 0.161576,-0.1548 0.386169,-0.152389 0.551407,0.0059 0.114456,0.109655 0.134216,0.114471 0.369035,0.08993 0.526218,-0.055 1.3538309,-0.396445 1.8447779,-0.761091 0.181839,-0.13506 0.211291,-0.174619 0.190795,-0.256279 -0.01333,-0.05311 0.0026,-0.160862 0.03546,-0.239446 0.06789,-0.162475 0.283009,-0.277949 0.443002,-0.237793 0.08131,0.02041 0.118749,-0.0046 0.224922,-0.150484 0.419014,-0.57556 0.718558,-1.3020029 0.791805,-1.9202669 0.02332,-0.196867 0.01629,-0.222885 -0.09041,-0.334256 C 12.443424,8.564454 12.443109,8.342224 12.602971,8.1753629 12.710747,8.062869 12.71613,8.041335 12.689581,7.828844 12.620451,7.275515 12.298637,6.4762599 11.951877,5.996669 11.800202,5.786892 11.785247,5.777273 11.605521,5.773895 11.342739,5.768995 11.199803,5.626019 11.194864,5.363238 11.191464,5.183511 11.181864,5.168556 10.972089,5.016881 10.493132,4.6705797 9.6932301,4.34831 9.1415571,4.279383 8.9336781,4.25341 8.9093301,4.259157 8.8203191,4.355201 c -0.174371,0.1881496 -0.433211,0.1901917 -0.60505,0.00477 -0.117028,-0.126275 -0.22836,-0.1260278 -0.73158,0.00162 -0.436629,0.11076 -1.082192,0.4077006 -1.424613,0.6552819 -0.209777,0.151675 -0.219396,0.16663 -0.222774,0.346357 -0.0049,0.262781 -0.147875,0.405717 -0.410657,0.410657 -0.179504,0.0034 -0.194945,0.01326 -0.348063,0.222774 -0.338606,0.463326 -0.667068,1.280488 -0.735792,1.830531 -0.02597,0.207879 -0.02023,0.232226 0.07582,0.321237 0.18815,0.174371 0.190192,0.433211 0.0048,0.605051 -0.126235,0.11699 -0.126011,0.228012 0.0015,0.732527 0.115066,0.4553606 0.385069,1.0436311 0.648333,1.4125641 0.163549,0.229193 0.191233,0.25081 0.294702,0.230116 0.247469,-0.04949 0.522493,0.226542 0.472878,0.474617 -0.02043,0.102151 -8.95e-4,0.132014 0.1674,0.255908 0.412651,0.30378 1.105682,0.613079 1.62157,0.723703 0.394207,0.08453 0.483787,0.07763 0.614228,-0.04734 z m 0.06871,-0.715289 c -0.05672,-0.03085 -0.122726,-0.09911 -0.14668,-0.15168 -0.03448,-0.07567 -0.09375,-0.104926 -0.284465,-0.140393 -0.514372,-0.09566 -1.13118,-0.417496 -1.549568,-0.808536 -1.11955,-1.0463671 -1.28473,-2.8297271 -0.379417,-4.0963641 0.447831,-0.626568 1.239774,-1.144258 1.919057,-1.254483 0.138232,-0.02243 0.215898,-0.06664 0.326374,-0.185766 0.125129,-0.134933 0.168741,-0.156332 0.318602,-0.156332 0.149862,0 0.193474,0.0214 0.318603,0.156332 0.110475,0.119129 0.188141,0.163335 0.326374,0.185766 0.722686,0.117267 1.5280779,0.669734 1.9892829,1.364568 1.007372,1.51767 0.465605,3.6331121 -1.147533,4.4807931 -0.3266869,0.171668 -0.6456499,0.286402 -0.9038429,0.325121 -0.143639,0.02154 -0.196372,0.05044 -0.231098,0.126657 -0.08644,0.189707 -0.354006,0.264013 -0.555689,0.154317 z m 0.357085,-0.19061 c 0.114003,-0.114002 0.01005,-0.354737 -0.153182,-0.354737 -0.16323,0 -0.267184,0.240735 -0.153182,0.354737 0.0266,0.0266 0.09554,0.04837 0.153182,0.04837 0.05764,0 0.126577,-0.02177 0.153182,-0.04837 z m -0.441561,-0.435359 c 0.171233,-0.171233 0.406202,-0.170556 0.578422,0.0017 l 0.122598,0.122562 0.318096,-0.08044 C 11.031599,10.786685 11.931833,8.7581489 11.072571,7.1229709 10.686466,6.3882119 9.9772485,5.8348259 9.1867301,5.6514929 l -0.261574,-0.06066 -0.121064,0.121064 c -0.170695,0.170695 -0.406325,0.170695 -0.577019,0 l -0.121064,-0.121064 -0.268868,0.0622 c -0.595997,0.137881 -1.233375,0.549917 -1.599729,1.03415 -0.408904,0.540476 -0.599483,1.101894 -0.599483,1.765993 0,0.485833 0.07071,0.804424 0.272864,1.229487 0.285663,0.6006361 0.740545,1.0610361 1.335267,1.3514611 0.258068,0.126023 0.642404,0.254173 0.833078,0.277774 0.01492,0.0018 0.08155,-0.05106 0.148065,-0.117574 z M 8.0875701,9.4983319 c -0.739328,-0.284369 -0.941727,-1.281656 -0.375107,-1.848277 0.571335,-0.571334 1.56992,-0.3627 1.85026,0.386574 0.166607,0.4453 0.07519,0.871601 -0.258445,1.20524 -0.332778,0.332778 -0.775616,0.426122 -1.216708,0.256463 z m 0.567632,-3.945927 c 0.08875,-0.09807 0.05581,-0.267518 -0.05909,-0.303987 -0.207866,-0.06597 -0.362153,0.147072 -0.220147,0.303987 0.03932,0.04345 0.102149,0.079 0.139618,0.079 0.03747,0 0.100298,-0.03555 0.139619,-0.079 z m -3.107011,6.1541031 c 0.05011,-0.03664 0.0674,-0.09363 0.05809,-0.191477 -0.01197,-0.125804 -0.02652,-0.140575 -0.150112,-0.152377 -0.147405,-0.01408 -0.204144,0.03612 -0.205165,0.181511 -6.74e-4,0.09584 0.09667,0.214512 0.175957,0.214512 0.02744,0 0.08199,-0.02347 0.121226,-0.05217 z m 6.1922759,-0.02845 c 0.04434,-0.04434 0.08062,-0.107831 0.08062,-0.141088 0,-0.03326 -0.03628,-0.09675 -0.08062,-0.141089 -0.04434,-0.04434 -0.107832,-0.08062 -0.141088,-0.08062 -0.03326,0 -0.09675,0.03628 -0.141089,0.08062 -0.04434,0.04434 -0.08062,0.107832 -0.08062,0.141089 0,0.03326 0.03628,0.09675 0.08062,0.141088 0.04434,0.04434 0.107832,0.08062 0.141089,0.08062 0.03326,0 0.09675,-0.03628 0.141088,-0.08062 z M 4.2748631,8.6063569 c 0.06236,-0.06236 0.06236,-0.244006 0,-0.306364 -0.0266,-0.0266 -0.08647,-0.04837 -0.133027,-0.04837 -0.114082,0 -0.181399,0.0748 -0.181399,0.201555 0,0.126758 0.06732,0.2015551 0.181399,0.2015551 0.04656,0 0.106421,-0.02177 0.133027,-0.04837 z m 8.7474949,0 c 0.02661,-0.0266 0.04837,-0.09554 0.04837,-0.153182 0,-0.193585 -0.182106,-0.268133 -0.329391,-0.134841 -0.09009,0.08152 -0.09227,0.130726 -0.01097,0.2468051 0.06827,0.09747 0.215019,0.1181839 0.291985,0.04122 z M 5.6060241,5.4173319 c 0.01576,-0.137458 -0.0528,-0.229351 -0.171108,-0.229351 -0.110944,0 -0.184526,0.07234 -0.184526,0.1814 0,0.122244 0.08257,0.186783 0.221512,0.173139 0.0993,-0.0098 0.123473,-0.03232 0.134122,-0.125188 z m 6.1517189,0.0701 c 0.03484,-0.03484 0.06335,-0.08796 0.06335,-0.118054 0,-0.145456 -0.24895,-0.238812 -0.354737,-0.133026 -0.05173,0.05173 -0.06604,0.243015 -0.0215,0.287552 0.0503,0.0503 0.249323,0.0271 0.31289,-0.03647 z M 8.6788271,4.1979524 c 0.03731,-0.044958 0.04131,-0.093777 0.01404,-0.1713218 -0.03144,-0.089411 -0.06256,-0.1084469 -0.177286,-0.1084469 -0.114723,0 -0.145842,0.019036 -0.177286,0.1084469 -0.04865,0.1383321 0.02392,0.2341968 0.177286,0.2341968 0.06108,0 0.134543,-0.028294 0.163243,-0.062875 z m 5.2641569,3.9730435 c -17.5927762,11.2676141 -8.7963889,5.6338061 0,0 z"
     id="path855"
     inkscape:connector-curvature="0"
     sodipodi:nodetypes="cccccsccscscccccccccscscsccccccccccccccccccsssccccccccccccscccccccccsccsccccccccccccccssccscsscccccsssccccssscsccccsccccscccscccscccccscccscscscscccsssccscccccsscccsccccccscscccc" />
  <path
     style="fill:none;stroke-width:0.04031103;stroke:none"
     d="M 7.9057185,13.934453 C 7.1779028,13.826651 6.6141705,13.64884 5.9909444,13.330499 4.5473811,12.593136 3.529314,11.250812 3.1631652,9.6020661 3.0295536,9.0004207 3.0295536,8.0334639 3.1631652,7.4318185 3.5296423,5.781594 4.5460867,4.4414098 5.9909444,3.7033852 6.5109016,3.4377942 6.8595446,3.3111234 7.4051047,3.189585 7.7572671,3.1111312 7.9357716,3.0963572 8.510384,3.0981063 c 0.5933526,0.00181 0.7459916,0.01629 1.1377781,0.1079634 2.1567469,0.5046535 3.7236139,2.1135877 4.1905869,4.3030968 0.101128,0.4741605 0.100375,1.5347611 -0.0014,2.0145866 -0.24793,1.1685479 -0.696265,2.0032349 -1.516656,2.8236259 -0.815893,0.815892 -1.660012,1.270988 -2.8025049,1.510933 -0.3111182,0.06534 -1.3531499,0.114546 -1.6124414,0.07614 z M 8.777493,13.116805 c 0.1346013,-0.131943 0.1964244,-0.161391 0.3894578,-0.185509 0.5920493,-0.07397 1.4022152,-0.40279 1.9153602,-0.777379 0.252016,-0.183969 0.288546,-0.198543 0.451574,-0.180168 0.158475,0.01786 0.191004,0.0064 0.30526,-0.10789 0.114256,-0.114257 0.125753,-0.146785 0.10789,-0.30526 -0.01824,-0.16185 -0.0035,-0.19999 0.168336,-0.435702 0.380779,-0.522303 0.666223,-1.2032595 0.780935,-1.8630024 0.04879,-0.2805777 0.07476,-0.3404891 0.203279,-0.4688217 0.108236,-0.1080824 0.147345,-0.1813735 0.147345,-0.2761306 0,-0.094757 -0.03911,-0.1680482 -0.147345,-0.2761306 C 12.971068,8.1124791 12.945091,8.0525677 12.896306,7.77199 12.781594,7.1122471 12.49615,6.431291 12.115371,5.9089874 11.943528,5.6732759 11.928793,5.6351356 11.947035,5.4732859 11.964761,5.3160261 11.953095,5.2819754 11.844171,5.1730513 11.741666,5.0705462 11.689542,5.0501934 11.529529,5.0501934 c -0.164751,0 -0.233466,-0.028815 -0.487496,-0.2044258 C 10.490762,4.4646738 9.5128456,4.0827286 9.0883813,4.0827286 9.0083833,4.0827286 8.926747,4.0382022 8.83076,3.9422151 8.594391,3.7058461 8.3767509,3.7042364 8.15408,3.9372102 8.0442228,4.0521506 7.9849632,4.076661 7.7243189,4.1149639 7.1443677,4.2001904 6.4786642,4.4739306 5.9276832,4.8537485 5.684565,5.0213416 5.614544,5.0501934 5.4509277,5.0501934 c -0.1582233,0 -0.2124031,0.02062 -0.3096158,0.1178323 -0.097213,0.097213 -0.1178323,0.1513925 -0.1178323,0.3096158 0,0.1647506 -0.028815,0.2334657 -0.2044258,0.487496 -0.3805112,0.5504288 -0.763039,1.5291397 -0.763039,1.952262 0,0.080439 -0.049159,0.1663733 -0.1612441,0.2818693 -0.1313126,0.1353084 -0.1612441,0.1949022 -0.1612441,0.3210379 0,0.1261695 0.028658,0.1831914 0.1545683,0.3075494 0.1378772,0.1361775 0.1594286,0.1853106 0.1995763,0.4549958 0.086632,0.5819362 0.360103,1.2464631 0.7393635,1.7966361 0.1675931,0.243118 0.1964449,0.313139 0.1964449,0.476755 0,0.160013 0.020353,0.212136 0.1228579,0.314641 0.1089241,0.108925 0.1429748,0.120591 0.3002346,0.102865 0.1618497,-0.01824 0.19999,-0.0035 0.4357015,0.168336 0.5223036,0.380779 1.2032597,0.666223 1.8630026,0.780935 0.2805777,0.04879 0.3404891,0.07476 0.4688217,0.203279 0.2026142,0.202904 0.3492375,0.200433 0.5633951,-0.0095 z m -0.4221053,-0.07812 c -0.084077,-0.09291 -0.085521,-0.224205 -0.00337,-0.306357 0.1284088,-0.128409 0.3397644,-0.04334 0.3397644,0.136748 0,0.215334 -0.2025803,0.317473 -0.336396,0.169609 z M 7.7377884,12.689911 C 7.1421429,12.581834 6.3984872,12.261726 5.9864924,11.936062 5.8105649,11.796999 5.7893893,11.76328 5.7893893,11.622202 c 0,-0.231651 -0.1356904,-0.37299 -0.3858809,-0.401944 C 5.2264917,11.199773 5.1934206,11.178508 5.0548548,10.996071 4.7187391,10.553538 4.3939595,9.779448 4.3002387,9.1974949 4.2608863,8.9531387 4.2625194,8.9452144 4.3797486,8.8116978 4.5440956,8.6245167 4.5447926,8.4101616 4.3816581,8.224362 L 4.2638802,8.0902202 4.3177511,7.7800002 C 4.423023,7.1737839 4.7384362,6.4340682 5.0711084,6.0132062 5.2101712,5.8372787 5.2438905,5.8161031 5.3849684,5.8161031 c 0.2316517,0 0.3729906,-0.1356904 0.4019442,-0.3858809 0.020485,-0.1770167 0.041751,-0.2100878 0.2241873,-0.3486536 0.4366076,-0.3316154 1.1789402,-0.645471 1.7878117,-0.7558805 0.2515445,-0.045614 0.2529227,-0.045342 0.3926545,0.077344 0.191244,0.1679146 0.4038931,0.1698353 0.5912427,0.00534 l 0.1341418,-0.1177778 0.31022,0.053871 c 0.5987938,0.1039828 1.2982344,0.3999098 1.7421864,0.7371035 0.181082,0.1375363 0.2038,0.172465 0.223655,0.3438577 0.02889,0.2493356 0.139397,0.3598477 0.388733,0.3887322 0.171433,0.01986 0.206267,0.04253 0.34365,0.2236552 0.334569,0.4410951 0.620009,1.1090017 0.736589,1.7235604 l 0.061,0.3215514 -0.120981,0.1377892 c -0.167974,0.1913125 -0.167992,0.4090118 -4e-5,0.5847506 0.06651,0.069599 0.120933,0.1309206 0.120933,0.1362686 0,0.096367 -0.145661,0.7220787 -0.216512,0.9300663 -0.123564,0.3627266 -0.380538,0.8690256 -0.575432,1.1337356 -0.145577,0.197725 -0.166355,0.211059 -0.329788,0.211633 -0.240198,8.43e-4 -0.410087,0.16551 -0.410087,0.397481 0,0.139586 -0.02297,0.18103 -0.171322,0.309049 -0.237215,0.20471 -1.0725431,0.604709 -1.4612753,0.699735 -0.597913,0.146161 -0.6319141,0.146484 -0.7774672,0.0074 -0.1780627,-0.170166 -0.3946869,-0.170961 -0.5869492,-0.0022 -0.075754,0.06651 -0.1444102,0.119296 -0.1525692,0.117295 -0.00816,-0.002 -0.1448222,-0.02722 -0.3036969,-0.05605 z M 8.7925613,11.767707 C 8.8914595,11.65626 8.9738694,11.616189 9.2448486,11.547786 9.843609,11.396641 10.348973,11.096131 10.780924,10.634374 11.868525,9.4717257 11.904809,7.7094087 10.866475,6.4791428 10.461721,5.9995716 9.8124106,5.6021737 9.2147976,5.4682659 8.9610154,5.4114005 8.8936835,5.3780206 8.7878852,5.2566224 8.6805466,5.1334564 8.6372513,5.1124923 8.4902285,5.1124923 c -0.1466906,0 -0.1905607,0.021116 -0.2976567,0.1432726 C 8.0878809,5.3751774 8.0166134,5.4107416 7.7646299,5.4693178 6.6829175,5.7207732 5.7718246,6.5997779 5.4604116,7.6923829 c -0.1189,0.4171652 -0.1277836,1.1899914 -0.018282,1.590469 0.3194977,1.1684961 1.2511454,2.0567661 2.4067412,2.2946831 0.174598,0.03595 0.2456066,0.07382 0.3153939,0.168209 0.1759936,0.238045 0.4287058,0.246879 0.6282971,0.02196 z m -0.4555147,-0.07425 c -0.026605,-0.02661 -0.048373,-0.09554 -0.048373,-0.153182 0,-0.05764 0.021768,-0.126577 0.048373,-0.153182 0.026605,-0.0266 0.095537,-0.04837 0.1531819,-0.04837 0.057645,0 0.1265766,0.02177 0.1531819,0.04837 0.026605,0.0266 0.048373,0.09554 0.048373,0.153182 0,0.05765 -0.021768,0.126576 -0.048373,0.153182 -0.026605,0.0266 -0.095537,0.04837 -0.1531819,0.04837 -0.057645,0 -0.1265766,-0.02177 -0.1531819,-0.04837 z M 7.6170129,11.281899 C 7.1469435,11.129631 6.8122137,10.918805 6.4336213,10.536556 6.0551574,10.154436 5.861737,9.8334761 5.7023925,9.323163 5.5668614,8.8891139 5.5668614,8.1447707 5.7023925,7.7107216 5.8661044,7.1864214 6.0528002,6.8803958 6.4532411,6.4799549 6.8493497,6.0838462 7.1632094,5.890938 7.6580209,5.7394583 8.01633,5.629767 8.0796655,5.6326349 8.2176138,5.7647981 c 0.1588961,0.1522319 0.3863333,0.1522319 0.5452294,0 0.1402191,-0.1343385 0.2066803,-0.1359753 0.5891771,-0.01451 0.4781889,0.1518532 0.8120947,0.360623 1.1948157,0.7470407 0.539124,0.5443326 0.793926,1.1189367 0.833011,1.8785248 0.04316,0.8388476 -0.246707,1.5926083 -0.842571,2.1909664 -0.394204,0.395855 -0.8969616,0.672169 -1.4242678,0.782773 -0.2138485,0.04486 -0.220867,0.04337 -0.3416256,-0.07233 -0.1676656,-0.160634 -0.3911956,-0.163936 -0.5537688,-0.0082 -0.1384309,0.132625 -0.225023,0.134472 -0.6006009,0.01281 z M 8.9574088,9.527194 C 9.5129722,9.281722 9.7578976,8.5818447 9.4840886,8.0221993 9.2846191,7.6144984 8.9529097,7.4102577 8.4902285,7.4102577 c -0.4486352,0 -0.7698779,0.1897255 -0.9824045,0.580206 C 6.9993171,8.9247589 7.9764434,9.9606275 8.9574088,9.527194 Z M 8.3370466,5.6467967 c -0.026605,-0.026605 -0.048373,-0.095537 -0.048373,-0.1531819 0,-0.1332182 0.068337,-0.2015552 0.2015552,-0.2015552 0.1332183,0 0.2015552,0.068337 0.2015552,0.2015552 0,0.1332182 -0.068337,0.2015552 -0.2015552,0.2015552 -0.057645,0 -0.1265766,-0.021768 -0.1531822,-0.048373 z M 5.2653458,11.741825 c -0.044342,-0.04434 -0.080622,-0.107832 -0.080622,-0.141089 0,-0.07813 0.1435771,-0.22171 0.2217107,-0.22171 0.078134,0 0.2217106,0.143577 0.2217106,0.22171 0,0.07813 -0.1435771,0.221711 -0.2217106,0.221711 -0.033257,0 -0.096746,-0.03628 -0.1410887,-0.08062 z m 6.1536802,0.0069 c -0.08752,-0.09671 -0.08467,-0.220023 0.007,-0.302989 0.09671,-0.08752 0.220023,-0.08467 0.302989,0.007 0.08866,0.09797 0.08418,0.19099 -0.01391,0.289081 -0.100421,0.100421 -0.209158,0.102956 -0.296085,0.0069 z M 3.9515304,8.6177199 c -0.061169,-0.093355 -0.061169,-0.1082001 0,-0.2015552 0.075923,-0.1158728 0.2273438,-0.1334037 0.3233157,-0.037432 0.084166,0.084166 0.080101,0.1911731 -0.010373,0.27305 -0.1064544,0.09634 -0.2367957,0.082153 -0.3129427,-0.034063 z m 8.7540806,0.037432 c -0.128457,-0.1284568 -0.03206,-0.3397644 0.154996,-0.3397644 0.103342,0 0.225079,0.1146237 0.225079,0.2119276 0,0.094245 -0.112417,0.1911828 -0.22171,0.1911828 -0.05226,0 -0.123525,-0.028506 -0.158365,-0.063346 z M 5.2653458,5.5742369 c -0.044342,-0.044342 -0.080622,-0.107832 -0.080622,-0.1410886 0,-0.033257 0.03628,-0.096747 0.080622,-0.1410887 0.044342,-0.044342 0.107832,-0.080622 0.1410887,-0.080622 0.033257,0 0.096746,0.03628 0.1410886,0.080622 0.044342,0.044342 0.080622,0.107832 0.080622,0.1410887 0,0.033257 -0.03628,0.096746 -0.080622,0.1410886 -0.044342,0.044342 -0.107832,0.080622 -0.1410886,0.080622 -0.033257,0 -0.096746,-0.03628 -0.1410887,-0.080622 z m 6.1675882,0 c -0.04434,-0.044342 -0.08062,-0.107832 -0.08062,-0.1410886 0,-0.078134 0.143577,-0.2217107 0.221711,-0.2217107 0.07813,0 0.22171,0.1435771 0.22171,0.2217107 0,0.078133 -0.143577,0.2217106 -0.22171,0.2217106 -0.03326,0 -0.09675,-0.03628 -0.141089,-0.080622 z M 8.3520193,4.3015599 c -0.095972,-0.095972 -0.078441,-0.2473928 0.037432,-0.3233157 0.093355,-0.061169 0.1082001,-0.061169 0.2015552,0 0.1701746,0.1115027 0.098459,0.3866617 -0.1007776,0.3866617 -0.041175,0 -0.1033692,-0.028506 -0.1382096,-0.063346 z"
     id="path893"
     inkscape:connector-curvature="0" />
</svg>
