<?xml version="1.0" encoding="UTF-8" standalone="no"?>
<svg
   xmlns:dc="http://purl.org/dc/elements/1.1/"
   xmlns:cc="http://creativecommons.org/ns#"
   xmlns:rdf="http://www.w3.org/1999/02/22-rdf-syntax-ns#"
   xmlns:svg="http://www.w3.org/2000/svg"
   xmlns="http://www.w3.org/2000/svg"
   xmlns:sodipodi="http://sodipodi.sourceforge.net/DTD/sodipodi-0.dtd"
   xmlns:inkscape="http://www.inkscape.org/namespaces/inkscape"
   width="512"
   height="512"
   version="1.1"
   viewBox="0 0 16.933 16.933"
   id="svg19"
   sodipodi:docname="aqua.svg"
   inkscape:version="0.92.5 (2060ec1f9f, 2020-04-08)">
  <metadata
     id="metadata23">
    <rdf:RDF>
      <cc:Work
         rdf:about="">
        <dc:format>image/svg+xml</dc:format>
        <dc:type
           rdf:resource="http://purl.org/dc/dcmitype/StillImage" />
        <dc:title />
      </cc:Work>
    </rdf:RDF>
  </metadata>
  <sodipodi:namedview
     pagecolor="#ffffff"
     bordercolor="#666666"
     borderopacity="1"
     objecttolerance="10"
     gridtolerance="10"
     guidetolerance="10"
     inkscape:pageopacity="0"
     inkscape:pageshadow="2"
     inkscape:window-width="1888"
     inkscape:window-height="968"
     id="namedview21"
     showgrid="false"
     inkscape:pagecheckerboard="true"
     inkscape:zoom="5.2149125"
     inkscape:cx="15.376139"
     inkscape:cy="34.855446"
     inkscape:window-x="16"
     inkscape:window-y="60"
     inkscape:window-maximized="0"
     inkscape:current-layer="g17" />
  <defs
     id="defs7">
    <linearGradient
       id="b"
       x1="45.628"
       x2="45.628"
       y1="57.955"
       y2="12.461"
       gradientTransform="matrix(0.27476633,0,0,0.27476633,-0.32619,279.75469)"
       gradientUnits="userSpaceOnUse">
      <stop
         offset="0"
         id="stop2" />
      <stop
         stop-opacity="0"
         offset="1"
         id="stop4" />
    </linearGradient>
  </defs>
  <g
     transform="translate(0 -280.07)"
     id="g17">
    <circle
       id="circle9"
       style="fill:#45dbe1;stroke-width:0.9629907;paint-order:markers stroke fill;fill-opacity:1"
       r="7.1438417"
       cy="288.54041"
       cx="8.4667892" />
    <path
       inkscape:connector-curvature="0"
       id="path11"
       style="opacity:0.25;fill:url(#b);stroke-width:0.9629907;paint-order:stroke markers fill"
       d="m 13.171194,283.17136 a 11.128566,11.128566 0 0 1 0.516135,3.30762 11.128566,11.128566 0 0 1 -4.8757575,9.1928 7.14488,7.14488 0 0 0 6.7990595,-7.13241 7.14488,7.14488 0 0 0 -2.439437,-5.36905 z" />
    <g
       id="g864"
       transform="matrix(0.03779409,0,0,0.03779409,11.113517,277.97032)"
       style="fill:#ececec">
      <path
         style="fill:#ececec;stroke-width:0.26457813"
         d="m -126.53132,400.96841 c -8.39203,-1.85575 -16.91868,-8.21753 -25.92271,-19.34114 -4.79043,-5.91812 -11.76338,-15.7803 -15.15243,-21.43083 -12.322,-20.54437 -20.29808,-43.87236 -23.24873,-67.99658 -0.68254,-5.5804 -0.97307,-19.15853 -0.52137,-24.3664 1.14277,-13.17548 4.06494,-24.04762 9.16762,-34.10874 11.63981,-22.9506 34.4432,-37.57431 58.57699,-37.56516 7.96281,0.003 13.39614,1.30518 26.204226,6.28015 8.103946,3.14777 11.960357,4.45553 14.634795,4.96286 5.136081,0.9743 7.672157,0.38382 21.347831,-4.97046 15.246341,-5.96922 23.607997,-7.71953 33.722049,-7.05886 17.640099,1.15228 31.7136105,7.17496 42.895582,18.35693 3.670228,3.67023 7.41063,8.35947 7.169406,8.98809 -0.07892,0.20567 -0.836173,0.8323 -1.68277,1.3925 -4.384504,2.90123 -9.266542,7.26132 -12.9905005,11.60166 -9.9049243,11.54435 -14.7733869,25.23572 -14.253176,40.08359 0.3302041,9.42466 2.2739062,17.31786 6.1549076,24.99452 5.623431,11.1232 15.1661719,20.54925 26.6907449,26.36435 2.386553,1.20421 3.308635,1.80186 3.308635,2.14448 0,0.61412 -2.424526,7.30316 -4.246307,11.71516 -1.9628,4.75351 -6.328789,13.5028 -9.109886,18.25589 -1.277169,2.18277 -3.814243,6.17128 -5.63794,8.86337 -11.7485315,17.34278 -19.317686,25.32052 -28.233064,29.75712 -5.207157,2.59126 -9.634055,3.49185 -15.874688,3.22947 -6.099362,-0.25645 -9.775734,-1.25595 -18.955116,-5.15337 -10.792687,-4.58242 -15.154697,-5.50739 -24.832565,-5.26578 -8.424218,0.21031 -12.454963,1.18722 -22.886004,5.54679 -9.94709,4.15729 -13.01658,4.9588 -19.57879,5.11239 -3.70747,0.0868 -4.893,0.018 -6.74674,-0.392 z m 45.142232,-208.04578 c -0.432852,-0.33042 -0.513895,-0.85827 -0.623682,-4.0622 -0.433302,-12.6452 5.211657,-27.24802 14.821791,-38.34216 5.515774,-6.36752 11.820084,-11.07973 20.330166,-15.19595 6.074385,-2.9381 12.425332,-4.83816 17.472517,-5.22737 1.902449,-0.1467 2.192871,-0.10924 2.509474,0.32374 0.499489,0.68309 0.472145,8.64544 -0.04212,12.26358 -1.59398,11.21465 -6.66244,22.3288 -14.395106,31.56569 -7.611945,9.09268 -18.927986,15.98377 -29.89413,18.20451 -3.619125,0.7329 -9.480073,1.00362 -10.178914,0.47016 z"
         id="path878"
         inkscape:connector-curvature="0" />
      <path
         style="fill:#ececec;stroke-width:0.26457813"
         d="m -123.91894,401.19632 c -3.69273,-0.43132 -7.74346,-1.87623 -11.52087,-4.10949 -6.17775,-3.65239 -13.15562,-10.53978 -20.36384,-20.09981 -10.89292,-14.44694 -17.70998,-26.38797 -23.78396,-41.66092 -12.40069,-31.18137 -15.25389,-63.45235 -7.78966,-88.10452 4.32416,-14.28142 12.19816,-26.59897 22.61441,-35.37646 14.65433,-12.34879 34.44314,-17.96711 50.9833,-14.47486 4.16508,0.87941 9.34579,2.56384 16.616414,5.4026 17.563233,6.85741 17.713217,6.85916 34.395157,0.40047 17.196036,-6.65773 25.008576,-8.32425 35.45347,-7.56271 17.7555501,1.29457 32.4872447,7.79389 43.197354,19.0578 2.586122,2.71984 6.278757,7.35087 6.278757,7.87435 0,0.16012 -0.744126,0.79532 -1.653613,1.41154 -9.263884,6.27673 -16.9469866,15.05071 -21.6366896,24.70874 -4.0401954,8.32042 -5.6693088,15.55582 -5.662443,25.14863 0.00532,7.42955 0.7938403,12.61848 2.9149314,19.18192 4.65081528,14.39134 15.4714732,26.8482 29.6723662,34.15914 1.711704,0.88122 3.222178,1.75765 3.356608,1.94761 0.441149,0.6234 -3.158381,10.22087 -6.609673,17.62344 -3.656837,7.84344 -7.786026,14.97461 -13.3929132,23.12975 -12.448642,18.10638 -20.5907958,25.91334 -30.7441938,29.47853 -6.064318,2.12935 -13.864545,2.18513 -20.941623,0.1497 -2.187419,-0.62914 -3.969805,-1.31696 -13.791067,-5.32204 -6.342948,-2.58662 -10.835104,-3.52473 -17.846761,-3.72697 -8.938203,-0.25781 -14.073704,0.74277 -23.518824,4.5823 -11.437357,4.64937 -14.846977,5.69173 -20.240227,6.18755 -3.18731,0.29305 -3.4258,0.29278 -5.98641,-0.006 z m 42.636403,-208.44734 c -0.533011,-0.36601 -0.708651,-6.82477 -0.280106,-10.30014 1.512162,-12.26316 7.557296,-24.60233 16.66702,-34.02028 7.98482,-8.25499 18.204005,-14.18002 29.433016,-17.06513 2.706991,-0.69552 5.886037,-1.14457 7.354354,-1.03884 l 1.190601,0.0857 0.19252,2.24892 c 0.299273,3.49591 -0.116147,8.98666 -1.02089,13.49348 -2.244157,11.17888 -8.652777,23.12492 -16.743113,31.21012 -7.53528,7.53049 -17.181537,12.91982 -26.583305,14.85198 -3.023546,0.62137 -9.583322,0.96455 -10.210097,0.53415 z"
         id="path876"
         inkscape:connector-curvature="0" />
      <path
         style="fill:#ececec;stroke-width:0.26457813"
         d="m -125.3846,400.83284 c -9.95121,-1.90295 -19.3245,-9.3276 -30.42558,-24.10027 -10.71771,-14.26251 -17.36128,-25.83947 -23.30608,-40.61274 -6.13736,-15.25178 -9.79072,-29.7322 -11.61489,-46.03659 -0.65981,-5.89733 -0.66153,-20.06632 -0.003,-25.39686 2.51711,-20.37786 9.22791,-35.71104 20.9444,-47.85486 5.57698,-5.78039 11.90409,-10.42765 18.7715,-13.78767 9.19055,-4.49666 17.57602,-6.47557 27.39738,-6.46557 8.58091,0.009 12.83009,1.05904 27.820137,6.87652 9.395551,3.64631 11.78335,4.35155 15.359771,4.53651 4.458721,0.2306 6.290481,-0.24828 17.408485,-4.55113 12.291602,-4.75705 18.155396,-6.4978 25.002634,-7.42237 6.006135,-0.811 15.863348,-0.18191 22.795062,1.45478 12.3954247,2.92677 22.7983432,8.76467 31.178877,17.49693 2.801652,2.91924 5.953008,6.90035 5.953008,7.52043 0,0.2039 -0.744126,0.86961 -1.653614,1.47935 -4.815793,3.22865 -10.5603051,8.54135 -14.2710346,13.19831 -6.89435579,8.65239 -11.1358105,18.47345 -12.5119687,28.97137 -0.4664089,3.55797 -0.5283387,10.89938 -0.1233966,14.6283 2.1748984,20.02773 13.9199345,36.88131 32.4380149,46.54704 2.447451,1.27748 3.265608,1.83146 3.265608,2.21118 0,0.80422 -2.742873,8.3011 -4.658038,12.73145 -4.954961,11.46229 -10.948666,21.69524 -19.8566576,33.90092 -5.33490588,7.30986 -11.4692981,14.0615 -15.7073984,17.28789 -7.129994,5.42793 -14.626336,7.87276 -22.615212,7.37573 -5.722984,-0.3561 -9.610298,-1.44219 -18.52047,-5.17452 -9.51047,-3.98379 -14.006123,-5.12974 -21.393012,-5.45314 -8.777144,-0.38426 -15.480694,1.04542 -26.495625,5.65076 -6.39861,2.67525 -9.8753,3.86617 -13.3612,4.57678 -3.54199,0.72203 -9.16897,0.91795 -11.81761,0.41147 z m 43.946943,-208.6756 c -0.426235,-1.2992 -0.188863,-8.9709 0.375582,-12.13851 1.850285,-10.38363 6.901825,-20.84038 14.123528,-29.23588 6.236416,-7.25007 15.016248,-13.33493 24.791577,-17.1818 4.938459,-1.94342 14.151705,-3.84561 14.916579,-3.07971 0.511072,0.51175 0.392898,9.6142 -0.168888,13.0089 -1.422235,8.59412 -4.720889,16.89839 -9.668257,24.33958 -6.246473,9.39512 -13.629541,15.92753 -23.186961,20.5154 -5.895708,2.83013 -10.670251,4.03663 -16.838215,4.25492 l -4.138465,0.14647 z"
         id="path874"
         inkscape:connector-curvature="0" />
      <path
         style="fill:#ececec;stroke-width:0.26457813"
         d="m -122.56265,401.03804 c -12.2098,-1.16562 -22.32065,-9.17132 -36.37729,-28.80329 -6.34297,-8.8588 -10.0221,-14.87406 -14.15966,-23.15059 -9.93568,-19.87472 -15.92495,-40.79458 -17.72494,-61.91128 -0.36899,-4.32885 -0.36872,-15.94765 4.5e-4,-19.97565 1.34099,-14.63089 5.10811,-26.93985 11.54834,-37.73389 12.08992,-20.26312 33.32989,-32.78299 55.60219,-32.77462 8.21557,0.003 13.93641,1.42633 27.979345,6.96077 15.100199,5.95112 17.02481,6.00226 30.401676,0.80779 17.892472,-6.94796 24.377722,-8.62169 33.48018,-8.64069 21.436719,-0.0447 40.5292403,8.92578 52.162259,24.50814 0.851778,1.14096 1.481418,2.18331 1.399198,2.31635 -0.08222,0.13303 -0.886234,0.73863 -1.786696,1.34578 -4.520924,3.04829 -10.3010509,8.36514 -13.7730171,12.66911 -6.92822981,8.58848 -11.1158111,17.95893 -12.7829523,28.60411 -0.6419459,4.099 -0.6370698,13.11645 0.00947,17.50826 1.5564047,10.57241 5.82064747,20.50181 12.1745866,28.34886 1.6876645,2.08425 6.4536608,6.89662 8.6658068,8.75014 2.977496,2.49478 8.286746,5.98804 11.673888,7.68092 1.63798,0.81865 3.024478,1.53111 3.081113,1.58323 0.19728,0.18157 -2.679681,8.17536 -4.41366,12.2636 -3.973328,9.36802 -8.535539,17.71329 -14.545233,26.60641 -13.8618909,20.51275 -22.664869,28.70694 -34.191987,31.82732 -2.281333,0.61755 -2.99003,0.68195 -7.672766,0.69724 -7.300798,0.0238 -10.168907,-0.67264 -20.107938,-4.88279 -10.6117,-4.49507 -15.165018,-5.55381 -23.845988,-5.54465 -8.701615,0.009 -13.730891,1.15245 -24.174944,5.49557 -9.949431,4.13742 -13.312571,5.04254 -20.240221,5.44727 -0.80035,0.0468 -1.87189,0.0452 -2.38121,-0.003 z m 41.544691,-208.55343 c -0.610964,-0.41987 -0.699637,-6.76226 -0.149849,-10.71805 2.073184,-14.9168 10.940282,-29.92879 23.090856,-39.09281 3.611642,-2.72392 6.613405,-4.54588 11.051362,-6.70776 6.523976,-3.17806 13.215969,-5.15964 17.726735,-5.2491 l 2.116625,-0.042 0.08178,4.23325 c 0.126712,6.55955 -0.744407,12.08864 -2.880695,18.28411 -6.913615,20.05024 -22.827431,34.9937 -41.25334,38.73789 -3.121194,0.63424 -9.168659,0.97696 -9.78347,0.55445 z"
         id="path872"
         inkscape:connector-curvature="0" />
      <path
         style="fill:#ececec;stroke-width:0.26457813"
         d="m -124.54698,400.65036 c -6.34704,-0.90594 -13.27594,-4.79379 -19.94076,-11.18883 -6.32419,-6.06821 -18.23658,-22.00822 -24.06637,-32.20331 -11.9181,-20.84226 -19.56491,-44.6068 -21.91314,-68.10101 -0.62083,-6.21135 -0.61374,-18.05224 0.0143,-23.81203 1.81568,-16.65309 6.8854,-30.44717 15.36394,-41.80334 10.95061,-14.66728 26.73659,-23.99457 44.58907,-26.34587 3.26288,-0.42975 10.3649,-0.43449 13.22891,-0.009 5.29202,0.78651 11.34162,2.6278 20.504801,6.24096 15.768206,6.2176 17.999877,6.37752 29.201563,2.09258 16.130553,-6.17037 19.260835,-7.21518 25.292846,-8.44212 6.982056,-1.42019 14.436545,-1.46629 22.512282,-0.1392 16.5960837,2.72722 30.507734,10.91061 40.009063,23.53492 l 1.485786,1.97415 -0.760961,0.54671 c -10.751402,7.72432 -17.4648765,15.25485 -22.4234544,25.15247 -7.0143076,14.00099 -7.8366244,31.95996 -2.1591031,47.15374 5.0989022,13.64532 16.0883905,25.69969 29.6146085,32.48428 1.450574,0.72759 2.690556,1.3562 2.755521,1.39691 0.201476,0.12626 -1.285054,4.48582 -3.08723,9.05393 -5.229572,13.2558 -11.763088,24.67814 -22.2465684,38.89298 -7.8101136,10.58996 -14.3802796,16.74904 -21.6146466,20.26224 -5.11441,2.48371 -10.393672,3.44733 -16.421548,2.99744 -5.418888,-0.40444 -9.075247,-1.44333 -17.171785,-4.87914 -5.7879,-2.45613 -9.875582,-3.88215 -13.137521,-4.58315 -7.390646,-1.58826 -16.088385,-1.44333 -23.514641,0.39181 -3.357695,0.82974 -6.033585,1.78452 -12.302882,4.3898 -8.10907,3.36982 -11.42453,4.35519 -16.67914,4.95713 -2.72511,0.31218 -4.87124,0.3076 -7.13289,-0.0153 z m 43.434466,-208.75664 c -0.265597,-0.9924 -0.203863,-7.55632 0.09433,-10.02988 1.405939,-11.66252 8.582775,-25.71162 17.515218,-34.28712 9.735301,-9.34628 23.75006,-16.13275 34.733267,-16.81914 l 1.322891,-0.0827 0.241922,2.11663 c 0.320748,2.80629 -0.168195,9.06681 -1.043501,13.36119 -2.202671,10.80663 -8.050735,21.94947 -15.742039,29.99471 -9.471916,9.9078 -21.560668,15.81739 -33.223174,16.24116 l -3.730195,0.13555 z"
         id="path870"
         inkscape:connector-curvature="0" />
      <path
         style="fill:#ececec;stroke-width:0.26457813"
         d="m -125.49717,400.26574 c -8.98074,-1.6261 -17.95094,-8.47593 -28.04605,-21.41654 -8.10902,-10.3947 -14.10185,-19.74174 -19.2534,-30.02962 -9.44567,-18.86342 -15.10573,-37.97032 -17.39954,-58.73634 -0.57814,-5.23391 -0.66149,-19.20739 -0.14361,-24.07661 2.22227,-20.89454 9.41413,-37.323 21.75369,-49.69224 11.88568,-11.91427 26.94342,-18.62274 43.24536,-19.26652 8.18827,-0.32336 14.83328,1.20513 28.501253,6.55587 10.576133,4.14035 13.525166,4.97837 17.535345,4.98298 3.814282,0.004 6.367938,-0.7335 17.594446,-5.08402 16.966165,-6.57476 24.511732,-8.05206 36.114915,-7.07072 18.5272794,1.56694 34.1041873,9.56696 44.759151,22.9875 1.211908,1.52647 2.203467,2.85285 2.203467,2.94753 0,0.0947 -0.744126,0.68869 -1.653613,1.32004 -12.7674188,8.86289 -21.9679064,21.70396 -25.4464686,35.51548 -2.2724642,9.02275 -2.3634976,19.28432 -0.2548152,28.72394 3.5537553,15.90856 14.0863409,29.8764 29.0372698,38.50794 1.381426,0.79754 3.175335,1.75362 3.986463,2.12464 0.811125,0.37102 1.474774,0.847 1.474774,1.05774 0,0.21075 -0.522473,1.84944 -1.161051,3.64154 -5.287991,14.84019 -11.804542,26.81936 -22.9450146,42.17906 -14.8769664,20.51131 -26.6433854,27.15225 -43.0417344,24.29261 -3.143718,-0.54821 -7.299039,-1.95103 -13.373843,-4.5149 -2.899107,-1.22356 -6.492927,-2.63345 -7.986267,-3.13309 -6.420996,-2.14829 -13.730658,-2.93915 -20.800971,-2.25054 -6.134903,0.5975 -11.096029,1.98494 -19.202596,5.37022 -2.58699,1.08032 -5.73731,2.34228 -7.00071,2.80437 -6.50635,2.37967 -13.2701,3.206 -18.49645,2.25968 z m 44.37661,-210.56292 c -0.894115,-12.71981 5.586584,-28.94266 16.121407,-40.35602 2.323782,-2.51757 6.928807,-6.36672 10.314097,-8.62113 8.144932,-5.42405 17.076598,-8.84412 25.548655,-9.78296 l 1.485341,-0.1646 0.168272,0.84135 c 0.260345,1.30173 0.198973,6.33532 -0.112001,9.18599 -2.017686,18.49591 -13.489927,36.20731 -29.322557,45.26957 -4.963962,2.84126 -11.199574,5.06493 -16.352159,5.8313 -1.046502,0.15565 -3.201777,0.28301 -4.789499,0.28301 h -2.886773 z"
         id="path868"
         inkscape:connector-curvature="0" />
      <path
         style="fill:#ececec;stroke-width:0.26457813"
         d="m -124.55767,400.29387 c -12.04642,-1.87245 -23.39568,-12.25415 -38.96644,-35.6444 -12.21287,-18.34604 -21.34004,-41.75894 -25.17935,-64.58968 -4.19973,-24.97405 -1.76796,-47.44472 7.04955,-65.1411 7.12229,-14.29415 17.76167,-24.91283 31.70743,-31.64571 8.43478,-4.07224 17.29266,-6.12164 26.45781,-6.12141 7.69315,1.9e-4 13.26724,1.38522 26.769478,6.65157 7.85801,3.06491 11.196185,4.1685 14.182279,4.6886 5.083872,0.88548 8.008048,0.18133 21.91179,-5.27647 17.194631,-6.74961 26.563155,-8.17573 40.057346,-6.09771 16.169894,2.49006 29.9279675,10.25602 39.536578,22.31703 1.173962,1.47359 2.134478,2.78249 2.134478,2.90866 0,0.12617 -0.435321,0.49845 -0.967382,0.82728 -2.043445,1.26292 -6.698743,5.14826 -9.572455,7.98924 -5.3453147,5.28442 -9.1394763,10.47899 -12.2148187,16.72325 -4.183192,8.49367 -5.9348659,16.15777 -5.9261454,25.92866 0.00503,5.62215 0.2809687,8.3972 1.3400221,13.47567 3.2810334,15.73349 13.2517741,29.53106 27.758924,38.41295 2.130134,1.30416 5.725807,3.22294 6.927663,3.69685 0.12781,0.0504 -2.081092,6.27877 -3.369455,9.50075 -4.876678,12.19578 -10.989099,22.91072 -20.7529558,36.37949 -10.3480794,14.27469 -18.6469142,21.30291 -28.3339682,23.99587 -2.47452,0.6879 -2.979743,0.73573 -7.805055,0.73886 -7.324264,0.005 -10.049567,-0.66685 -20.353015,-5.01543 -10.126452,-4.27387 -15.162967,-5.43465 -23.560016,-5.42991 -8.726107,0.005 -14.340029,1.31177 -25.274152,5.88345 -8.12538,3.39732 -11.73689,4.44984 -17.03937,4.96587 -3.14283,0.30588 -3.84995,0.2926 -6.51877,-0.12223 z m 43.700551,-208.69984 c -0.310247,-1.15768 -0.161295,-7.44401 0.242121,-10.21845 1.64962,-11.34506 7.576956,-23.23915 16.032741,-32.1721 4.45208,-4.70332 10.990846,-9.47527 17.375098,-12.68024 5.675243,-2.84904 14.4871,-5.44978 18.469479,-5.4511 l 1.09033,-3.6e-4 0.184577,2.35947 c 0.417425,5.33595 -0.862331,13.4961 -3.156935,20.12967 -2.142401,6.19356 -6.79573,14.40106 -11.070815,19.52662 -9.645098,11.56387 -24.186087,19.10179 -36.848209,19.10179 -2.015157,0 -2.169472,-0.0396 -2.318387,-0.5953 z"
         id="path866"
         inkscape:connector-curvature="0" />
    </g>
  </g>
  <g
     inkscape:groupmode="layer"
     id="layer1"
     inkscape:label="Logo" />
</svg>
